<svg width="54" height="28" viewBox="0 0 54 28" fill="none" xmlns="http://www.w3.org/2000/svg">
<g clip-path="url(#clip0_105_87)">
<path d="M9.73098 12.9922C12.1063 9.02444 14.8699 5.36186 18.9036 2.91035C21.9397 1.066 25.255 -0.0846738 28.8874 -0.30012C31.6344 -0.463336 34.2922 -0.257683 36.9335 0.524125C39.877 1.39407 42.5101 2.80426 44.8441 4.74491C48.2981 7.61915 50.5314 11.4058 52.6573 15.2479C53.1628 16.1619 53.3825 17.2293 53.7343 18.225C52.8737 18.6314 52.4591 18.5253 52.137 17.7353C51.0369 15.0553 49.7369 12.4944 47.9165 10.2045C45.1844 6.76389 41.9088 4.03002 37.761 2.38643C36.4429 1.86413 35.0405 1.69275 33.6661 1.47241C31.6839 1.15577 29.6621 1.21779 27.6733 1.45935C24.9064 1.79558 22.394 2.82385 20.0071 4.26015C16.9991 6.06859 14.8021 8.61803 12.7258 11.3519C11.2176 13.3383 10.2364 15.5662 9.23708 17.799C8.85386 18.6542 8.18321 18.8109 7.34903 18.2184C7.21028 17.2799 7.86936 16.5846 8.11549 15.7637C8.28563 15.4552 8.45246 15.1451 8.60278 14.8268C9.00087 14.2278 9.10659 13.4541 9.73098 12.9922Z" fill="#FE0000"/>
<path d="M9.731 12.9922C9.39403 13.6402 9.05871 14.2882 8.72173 14.9361C8.41284 15.1255 8.36163 15.5058 8.10725 15.7375C7.80661 16.0787 7.44651 16.0672 7.05337 15.9252C6.46697 15.7131 5.86405 15.7392 5.26278 15.8387C3.95452 16.0574 3.52339 16.4867 3.37473 17.7941C3.29709 18.4714 2.8544 18.7848 2.29112 18.9855C1.87486 19.1341 1.49329 19.3087 1.52797 19.8065C1.56101 20.275 1.92111 20.5328 2.35224 20.59C2.93864 20.6667 3.07079 21.029 3.03941 21.5072C2.99976 22.0981 3.17155 22.48 3.81742 22.6383C4.63178 22.8375 5.0563 23.4332 5.12072 24.2362C5.16202 24.7406 5.43292 24.9446 5.87231 25.0621C6.61564 25.2612 7.36062 25.2253 8.06265 24.9609C8.62427 24.7487 9.01741 24.814 9.4568 25.2351C10.286 26.0283 11.2837 26.3172 12.4169 25.9418C13.1833 25.6872 13.7797 25.2531 14.0192 24.4386C14.1893 23.8576 14.523 23.7172 15.0598 24.0648C15.7041 24.4827 16.3846 24.5137 17.1032 24.215C18.1537 23.7776 18.4329 22.8619 17.6995 22.0099C17.3295 21.5807 17.1329 21.1694 17.3014 20.6079C17.4814 20.0073 17.7474 19.8783 18.3321 20.1525C18.7814 20.3631 19.0457 20.7418 19.2638 21.1547C19.5528 21.7031 19.9228 21.6394 20.3342 21.3163C20.6199 21.0927 20.8148 20.7956 20.9701 20.4741C21.099 20.2064 21.1089 19.9681 20.8215 19.7608C20.1723 19.2908 20.0748 18.6852 20.3738 17.9622C20.7289 17.1037 20.6364 16.7756 19.8287 16.2549C19.1151 15.7947 18.5584 15.2299 18.2314 14.4498C18.2974 13.8769 18.5419 13.4672 19.1911 13.4346C19.7164 14.0352 20.283 14.5607 20.9503 15.0341C21.8472 15.6706 22.247 16.6532 22.0256 17.812C21.9199 18.367 22.3031 18.8387 22.4353 19.3577C22.7161 20.4529 22.0422 22.1699 21.0593 22.7624C20.2549 23.2471 19.5066 23.7303 19.0242 24.6345C18.3371 25.919 16.6786 26.5098 15.296 26.1099C14.9541 26.0104 14.9062 26.1703 14.7262 26.3385C13.5335 27.45 12.1873 28.4994 10.4925 27.7519C9.19085 27.1774 8.02135 26.5392 6.55452 27.0419C6.33482 27.117 6.01602 26.9701 5.75998 26.8803C4.68629 26.5066 3.71005 26.0626 2.43814 26.1948C0.855675 26.3597 0.23128 25.0898 0.533567 23.4985C0.675625 22.7493 0.822639 21.8647 0.363427 21.0551C-0.338604 19.8131 -0.00328086 18.4975 1.17118 17.6357C1.70472 17.244 2.08795 16.7903 2.31425 16.1456C2.8577 14.595 5.24626 13.4917 6.90801 14.0074C7.24003 14.1103 7.39035 14.0695 7.67942 13.8867C8.30547 13.4819 8.87535 12.891 9.731 12.9922Z" fill="#000080"/>
<path d="M7.39034 18.2315C8.55654 18.5139 8.70025 18.4796 9.14294 17.4236C10.1886 14.9312 11.4654 12.5777 13.1206 10.4232C15.6297 7.15561 18.5832 4.45927 22.4237 2.73734C24.5926 1.76457 26.8292 1.3908 29.1632 1.16067C31.6955 0.910946 34.1402 1.26839 36.5651 1.82006C38.4763 2.25422 40.1463 3.25637 41.813 4.28463C45.1415 6.33463 47.5598 9.20235 49.6989 12.3606C50.8073 13.996 51.5622 15.8077 52.2972 17.6162C52.6342 18.4437 53.0653 18.46 53.7343 18.2266C53.8351 18.522 53.5923 18.4551 53.4634 18.4567C52.6408 18.4665 51.8198 18.4616 50.9972 18.4633C50.4373 17.59 50.1069 16.6075 49.6625 15.6788C47.2674 10.6795 43.7556 6.72798 38.6563 4.32544C36.8245 3.46202 34.867 2.97237 32.7874 2.8418C31.1306 2.73734 29.4919 2.7863 27.8599 2.91525C25.7324 3.08336 23.7353 3.80477 21.8505 4.78897C18.157 6.71819 15.4018 9.6006 13.185 13.0592C12.2798 14.471 11.6471 15.9954 10.9583 17.5019C10.8311 17.7794 10.699 18.0552 11.1103 18.2478C11.368 18.3686 11.3168 18.5302 11.0805 18.6493C10.0069 18.8435 8.92655 18.7473 7.8512 18.713C7.6249 18.7032 7.16239 18.7424 7.39034 18.2315Z" fill="#FE7F00"/>
<path d="M47.7167 18.4371C47.345 18.4306 46.975 18.4224 46.6033 18.4159C46.045 18.4894 45.8253 18.269 45.6634 17.7027C45.1464 15.8861 44.3023 14.2294 43.0502 12.7703C40.0274 9.24804 36.1043 7.81011 31.5386 7.78236C29.2574 7.76767 26.9845 7.7236 24.7859 8.52663C21.7894 9.62018 19.3166 11.4254 17.384 13.8997C16.4457 15.0994 15.9056 16.5569 15.3439 17.9736C15.2547 18.1972 15.225 18.4535 14.9971 18.6036C14.5461 18.7783 14.0952 18.775 13.6442 18.6134C13.2147 18.2576 13.3898 17.812 13.5021 17.4089C13.9911 15.6641 14.85 14.0874 15.8527 12.5875C18.6608 8.38953 22.8202 6.44072 27.6997 5.74052C32.0424 5.11867 36.2149 5.74379 40.1001 7.75135C42.7909 9.14195 44.7995 11.298 46.2449 13.9389C46.8049 14.9639 47.4094 15.9807 47.6869 17.1281C47.7877 17.5476 48.0718 17.9932 47.7167 18.4371Z" fill="#0000FE"/>
<path d="M11.2457 18.4567C10.6263 18.4192 10.3934 18.1842 10.6692 17.5492C11.7347 15.1043 12.9025 12.7131 14.5924 10.6223C17.8085 6.64474 21.7762 3.74275 26.9333 2.80916C28.6033 2.50721 30.341 2.42886 32.087 2.59697C33.5654 2.7406 35.019 2.84833 36.4528 3.28085C39.9927 4.35155 42.9247 6.35422 45.4206 8.98364C47.8141 11.5037 49.4957 14.4857 50.7941 17.6814C50.8948 17.9279 50.9312 18.1988 50.9956 18.4584C50.4059 18.4486 49.8162 18.4388 49.2265 18.429C48.6516 16.8507 47.9859 15.3132 47.2178 13.8116C46.6397 12.6821 45.8831 11.6947 45.077 10.7333C41.4694 6.42277 36.8278 4.32707 31.1653 4.34013C28.6743 4.34666 26.2296 4.53272 23.8658 5.3537C21.0808 6.31994 18.7748 7.957 16.8256 10.1425C14.7014 12.5303 13.1685 15.2136 12.3706 18.2984C12.336 18.4339 12.2765 18.5514 12.141 18.6183C11.814 18.7146 11.4952 18.7701 11.2457 18.4567Z" fill="#FEFE00"/>
<path d="M12.2203 18.4567C12.1575 17.4725 12.6118 16.6189 12.9669 15.7555C14.2157 12.7344 16.1748 10.1719 18.6294 8.04351C20.605 6.32974 22.9721 5.18885 25.5655 4.63228C28.7403 3.95167 31.9334 3.89128 35.1396 4.49355C39.0214 5.2215 42.1549 7.15888 44.7632 10.0511C46.752 12.2578 48.1742 14.7566 49.0976 17.5525C49.1934 17.8414 49.2529 18.127 49.2281 18.4306C48.7243 18.4322 48.2205 18.4339 47.715 18.4355C47.5036 16.3414 46.4481 14.5836 45.3347 12.8813C42.5646 8.64578 38.435 6.63495 33.5043 5.91843C29.1335 5.28352 25.0088 6.06696 21.132 8.01576C18.7418 9.21704 16.9066 11.125 15.5603 13.4264C14.7542 14.8056 13.9432 16.2011 13.631 17.8022C13.5897 18.0144 13.5137 18.2233 13.5979 18.442C13.1453 18.8615 12.6861 18.8468 12.2203 18.4567Z" fill="#00FE00"/>
<path d="M15.0714 18.4225C14.9954 17.8936 15.3555 17.5019 15.5157 17.0482C16.6852 13.7414 18.978 11.3911 21.9629 9.61855C24.3267 8.21489 26.8705 7.51795 29.6373 7.54896C31.9152 7.57508 34.1832 7.50326 36.4016 8.21652C40.5163 9.54184 43.5755 12.0015 45.2769 15.9922C45.5528 16.6385 45.9509 17.2489 45.9492 17.9834C45.9492 18.4698 46.4117 18.238 46.605 18.4159C46.5769 18.4257 46.5521 18.442 46.5257 18.442C44.9251 18.4992 44.9433 18.4926 44.4609 17.0221C43.407 13.8116 41.0383 11.8905 37.989 10.6452C34.5548 9.24315 30.9885 9.21541 27.3759 9.62182C24.4192 9.95641 21.8968 11.2719 19.5561 12.9988C19.4091 13.1081 19.3117 13.2844 19.1911 13.4297C18.831 13.7006 18.5072 14.0025 18.2991 14.409C17.6499 15.6869 17.0173 16.9715 16.4193 18.2723C16.1765 18.8044 15.6595 18.8158 15.0714 18.4225Z" fill="#7E00FE"/>
<path d="M15.0714 18.4224C15.8478 18.5987 16.2805 18.3702 16.5614 17.5541C16.9495 16.423 17.3889 15.2789 18.3007 14.4122C18.8492 15.1173 19.3926 15.7979 20.2185 16.2549C20.9536 16.6613 21.0164 17.2587 20.6067 18.0013C20.1723 18.7864 20.2796 19.0916 21.1419 19.5519C21.3484 19.6629 21.3368 19.8669 21.3253 20.0546C21.2873 20.7287 20.4167 21.7129 19.7643 21.8941C19.381 22.0002 19.3414 21.7211 19.2489 21.5236C18.9747 20.9409 18.6129 20.4594 17.9968 20.1852C17.7342 20.0677 17.5888 20.066 17.5425 20.3843C17.4633 20.9278 17.27 21.3963 17.8845 21.8924C18.8277 22.653 18.4032 23.9228 17.2634 24.3978C16.1765 24.8499 15.3027 24.6182 14.409 23.8576C14.229 25.1176 13.5038 25.8521 12.3574 26.1965C11.0822 26.58 10.0333 26.1165 9.13304 25.2645C8.88196 25.0278 8.80763 24.8907 8.38145 25.067C7.37713 25.4832 6.3117 25.5697 5.26939 25.0703C5.00509 24.943 4.83826 24.8891 4.88451 24.5023C4.99683 23.5556 4.56075 22.9713 3.56634 22.7624C2.99811 22.6432 2.79658 22.4425 2.85605 21.8582C2.90891 21.3424 3.10383 20.6814 2.07308 20.7597C1.76584 20.7826 1.18109 20.3876 1.2422 19.8033C1.29506 19.2891 1.48998 18.9186 2.13089 18.8223C2.78007 18.7244 3.2145 18.3457 3.17981 17.5623C3.14017 16.6434 3.87358 15.8469 4.78705 15.7179C5.67078 15.5939 6.55782 15.3262 7.41843 15.8697C7.71411 16.0558 7.86773 15.6363 8.11881 15.5629C8.27904 15.5384 8.37815 15.5678 8.29886 15.7588C8.09733 16.6189 7.51589 17.342 7.39035 18.2315C7.31932 18.5236 7.55388 18.4469 7.68107 18.4486C8.86874 18.4584 10.0581 18.4567 11.2457 18.4584C11.5712 18.4584 11.8966 18.4584 12.2203 18.4584C12.6795 18.4535 13.1404 18.4469 13.5996 18.442C14.0902 18.4355 14.5808 18.429 15.0714 18.4224Z" fill="#98CBFE"/>
<path d="M8.29886 15.7571C8.23939 15.6918 8.17827 15.6265 8.1188 15.5613C8.28894 15.323 8.34015 14.9737 8.72173 14.9345C8.58132 15.2103 8.44091 15.4829 8.29886 15.7571Z" fill="#9AC6F8"/>
<path d="M2.62147 22.511C2.36213 22.5616 2.11931 22.8097 1.84841 22.5584C1.81868 22.5306 1.84511 22.3772 1.88971 22.3478C2.17382 22.1601 2.37535 22.4359 2.62147 22.511Z" fill="#86B2EF"/>
</g>
<defs>
<clipPath id="clip0_105_87">
<rect width="54" height="28" fill="white"/>
</clipPath>
</defs>
</svg>
