<svg width="209" height="28" viewBox="0 0 209 28" fill="none" xmlns="http://www.w3.org/2000/svg">
<g clip-path="url(#clip0_133_58)">
<path d="M9.73098 12.9922C12.1063 9.02444 14.8699 5.36186 18.9036 2.91034C21.9397 1.066 25.255 -0.0846814 28.8874 -0.300127C31.6344 -0.463344 34.2922 -0.25769 36.9335 0.524117C39.877 1.39406 42.5101 2.80425 44.8441 4.7449C48.2981 7.61914 50.5314 11.4058 52.6573 15.2479C53.1628 16.1619 53.3825 17.2293 53.7343 18.225C52.8737 18.6314 52.4591 18.5253 52.137 17.7353C51.0369 15.0553 49.7369 12.4944 47.9165 10.2045C45.1844 6.76389 41.9088 4.03001 37.761 2.38642C36.4429 1.86412 35.0405 1.69275 33.6661 1.4724C31.6839 1.15576 29.6621 1.21779 27.6733 1.45935C24.9064 1.79557 22.394 2.82384 20.0071 4.26014C16.9991 6.06858 14.8021 8.61803 12.7258 11.3519C11.2176 13.3383 10.2364 15.5662 9.23708 17.799C8.85386 18.6542 8.18321 18.8109 7.34903 18.2184C7.21028 17.2799 7.86936 16.5846 8.11549 15.7636C8.28563 15.4552 8.45246 15.1451 8.60278 14.8268C9.00087 14.2278 9.10659 13.4541 9.73098 12.9922Z" fill="#FE0000"/>
<path d="M9.731 12.9922C9.39403 13.6402 9.05871 14.2882 8.72173 14.9362C8.41284 15.1255 8.36163 15.5058 8.10725 15.7375C7.80661 16.0787 7.44651 16.0672 7.05337 15.9252C6.46697 15.7131 5.86405 15.7392 5.26278 15.8387C3.95452 16.0574 3.52339 16.4867 3.37473 17.7941C3.29709 18.4714 2.8544 18.7848 2.29112 18.9856C1.87486 19.1341 1.49329 19.3087 1.52797 19.8065C1.56101 20.275 1.92111 20.5328 2.35224 20.59C2.93864 20.6667 3.07079 21.029 3.03941 21.5072C2.99976 22.0981 3.17155 22.48 3.81742 22.6383C4.63178 22.8375 5.0563 23.4332 5.12072 24.2362C5.16202 24.7406 5.43292 24.9446 5.87231 25.0621C6.61564 25.2612 7.36062 25.2253 8.06265 24.9609C8.62427 24.7487 9.01741 24.814 9.4568 25.2351C10.286 26.0283 11.2837 26.3172 12.4169 25.9418C13.1833 25.6872 13.7797 25.2531 14.0192 24.4386C14.1893 23.8576 14.523 23.7172 15.0598 24.0649C15.7041 24.4827 16.3846 24.5137 17.1032 24.215C18.1537 23.7776 18.4329 22.8619 17.6995 22.01C17.3295 21.5807 17.1329 21.1694 17.3014 20.6079C17.4814 20.0073 17.7474 19.8783 18.3321 20.1526C18.7814 20.3631 19.0457 20.7418 19.2638 21.1547C19.5528 21.7031 19.9228 21.6395 20.3342 21.3163C20.6199 21.0927 20.8148 20.7956 20.9701 20.4741C21.099 20.2064 21.1089 19.9681 20.8215 19.7608C20.1723 19.2908 20.0748 18.6852 20.3738 17.9622C20.7289 17.1037 20.6364 16.7756 19.8287 16.2549C19.1151 15.7947 18.5584 15.2299 18.2314 14.4498C18.2974 13.8769 18.5419 13.4672 19.1911 13.4346C19.7164 14.0352 20.283 14.5608 20.9503 15.0341C21.8472 15.6706 22.247 16.6532 22.0256 17.812C21.9199 18.367 22.3031 18.8387 22.4353 19.3577C22.7161 20.4529 22.0422 22.1699 21.0593 22.7624C20.2549 23.2471 19.5066 23.7303 19.0242 24.6345C18.3371 25.919 16.6786 26.5098 15.296 26.11C14.9541 26.0104 14.9062 26.1703 14.7262 26.3385C13.5335 27.45 12.1873 28.4994 10.4925 27.7519C9.19085 27.1774 8.02135 26.5392 6.55452 27.0419C6.33482 27.117 6.01602 26.9701 5.75998 26.8803C4.68629 26.5066 3.71005 26.0626 2.43814 26.1948C0.855675 26.3597 0.23128 25.0899 0.533567 23.4985C0.675625 22.7493 0.822639 21.8647 0.363427 21.0551C-0.338604 19.8131 -0.00328086 18.4975 1.17118 17.6358C1.70472 17.244 2.08795 16.7903 2.31425 16.1456C2.8577 14.595 5.24626 13.4917 6.90801 14.0074C7.24003 14.1103 7.39035 14.0695 7.67942 13.8867C8.30547 13.4819 8.87535 12.891 9.731 12.9922Z" fill="#000080"/>
<path d="M7.39034 18.2315C8.55654 18.5138 8.70025 18.4796 9.14294 17.4235C10.1886 14.9312 11.4654 12.5776 13.1206 10.4232C15.6297 7.1556 18.5832 4.45926 22.4237 2.73732C24.5926 1.76455 26.8292 1.39079 29.1632 1.16065C31.6955 0.910931 34.1402 1.26837 36.5651 1.82005C38.4763 2.2542 40.1463 3.25635 41.813 4.28462C45.1415 6.33462 47.5598 9.20233 49.6989 12.3606C50.8073 13.996 51.5622 15.8077 52.2972 17.6161C52.6342 18.4437 53.0653 18.46 53.7343 18.2266C53.8351 18.522 53.5923 18.4551 53.4634 18.4567C52.6408 18.4665 51.8198 18.4616 50.9972 18.4632C50.4373 17.59 50.1069 16.6075 49.6625 15.6788C47.2674 10.6794 43.7556 6.72797 38.6563 4.32542C36.8245 3.46201 34.867 2.97236 32.7874 2.84178C31.1306 2.73732 29.4919 2.78629 27.8599 2.91523C25.7324 3.08334 23.7353 3.80476 21.8505 4.78896C18.157 6.71817 15.4018 9.60058 13.185 13.0591C12.2798 14.471 11.6471 15.9954 10.9583 17.5019C10.8311 17.7794 10.699 18.0552 11.1103 18.2478C11.368 18.3686 11.3168 18.5302 11.0805 18.6493C10.0069 18.8435 8.92655 18.7472 7.8512 18.713C7.6249 18.7032 7.16239 18.7423 7.39034 18.2315Z" fill="#FE7F00"/>
<path d="M47.7167 18.4371C47.345 18.4306 46.975 18.4224 46.6033 18.4159C46.045 18.4894 45.8253 18.269 45.6634 17.7026C45.1464 15.886 44.3023 14.2294 43.0502 12.7702C40.0274 9.24803 36.1043 7.81009 31.5386 7.78235C29.2574 7.76766 26.9845 7.72359 24.7859 8.52661C21.7894 9.62016 19.3166 11.4253 17.384 13.8997C16.4457 15.0993 15.9056 16.5569 15.3439 17.9736C15.2547 18.1972 15.225 18.4534 14.9971 18.6036C14.5461 18.7782 14.0952 18.775 13.6442 18.6134C13.2147 18.2576 13.3898 17.812 13.5021 17.4089C13.9911 15.6641 14.85 14.0874 15.8527 12.5874C18.6608 8.38951 22.8202 6.4407 27.6997 5.74051C32.0424 5.11865 36.2149 5.74377 40.1001 7.75133C42.7909 9.14194 44.7995 11.298 46.2449 13.9389C46.8049 14.9639 47.4094 15.9807 47.6869 17.1281C47.7877 17.5476 48.0718 17.9932 47.7167 18.4371Z" fill="#0000FE"/>
<path d="M11.2457 18.4567C10.6263 18.4192 10.3934 18.1842 10.6692 17.5492C11.7347 15.1043 12.9025 12.7131 14.5924 10.6223C17.8085 6.64474 21.7762 3.74275 26.9333 2.80916C28.6033 2.50721 30.341 2.42886 32.087 2.59697C33.5654 2.7406 35.019 2.84833 36.4528 3.28085C39.9927 4.35155 42.9247 6.35422 45.4206 8.98364C47.8141 11.5037 49.4957 14.4857 50.7941 17.6814C50.8948 17.9279 50.9312 18.1988 50.9956 18.4584C50.4059 18.4486 49.8162 18.4388 49.2265 18.429C48.6516 16.8507 47.9859 15.3132 47.2178 13.8116C46.6397 12.6821 45.8831 11.6947 45.077 10.7333C41.4694 6.42277 36.8278 4.32707 31.1653 4.34013C28.6743 4.34666 26.2296 4.53272 23.8658 5.3537C21.0808 6.31994 18.7748 7.957 16.8256 10.1425C14.7014 12.5303 13.1685 15.2136 12.3706 18.2984C12.336 18.4339 12.2765 18.5514 12.141 18.6183C11.814 18.7146 11.4952 18.7701 11.2457 18.4567Z" fill="#FEFE00"/>
<path d="M12.2203 18.4567C12.1575 17.4725 12.6118 16.6189 12.9669 15.7555C14.2157 12.7343 16.1748 10.1718 18.6294 8.04349C20.605 6.32971 22.9721 5.18883 25.5655 4.63226C28.7403 3.95165 31.9334 3.89126 35.1396 4.49353C39.0214 5.22147 42.1549 7.15885 44.7632 10.0511C46.752 12.2577 48.1742 14.7566 49.0976 17.5525C49.1934 17.8414 49.2529 18.127 49.2281 18.4306C48.7243 18.4322 48.2205 18.4339 47.715 18.4355C47.5036 16.3414 46.4481 14.5836 45.3347 12.8812C42.5646 8.64576 38.435 6.63493 33.5043 5.91841C29.1335 5.2835 25.0088 6.06693 21.132 8.01574C18.7418 9.21701 16.9066 11.125 15.5603 13.4264C14.7542 14.8056 13.9432 16.2011 13.631 17.8022C13.5897 18.0144 13.5137 18.2233 13.5979 18.442C13.1453 18.8615 12.6861 18.8468 12.2203 18.4567Z" fill="#00FE00"/>
<path d="M15.0714 18.4225C14.9954 17.8936 15.3555 17.5019 15.5157 17.0482C16.6852 13.7414 18.978 11.3911 21.9629 9.61855C24.3267 8.21489 26.8705 7.51795 29.6373 7.54896C31.9152 7.57508 34.1832 7.50326 36.4016 8.21652C40.5163 9.54184 43.5755 12.0015 45.2769 15.9922C45.5528 16.6385 45.9509 17.2489 45.9492 17.9834C45.9492 18.4698 46.4117 18.238 46.605 18.4159C46.5769 18.4257 46.5521 18.442 46.5257 18.442C44.9251 18.4992 44.9433 18.4926 44.4609 17.0221C43.407 13.8116 41.0383 11.8905 37.989 10.6452C34.5548 9.24315 30.9885 9.21541 27.3759 9.62182C24.4192 9.95641 21.8968 11.2719 19.5561 12.9988C19.4091 13.1081 19.3117 13.2844 19.1911 13.4297C18.831 13.7006 18.5072 14.0025 18.2991 14.409C17.6499 15.6869 17.0173 16.9715 16.4193 18.2723C16.1765 18.8044 15.6595 18.8158 15.0714 18.4225Z" fill="#7E00FE"/>
<path d="M15.0714 18.4224C15.8478 18.5987 16.2805 18.3702 16.5614 17.5541C16.9495 16.423 17.3889 15.2789 18.3007 14.4122C18.8492 15.1173 19.3926 15.7979 20.2185 16.2549C20.9536 16.6613 21.0164 17.2587 20.6067 18.0013C20.1723 18.7864 20.2796 19.0916 21.1419 19.5519C21.3484 19.6629 21.3368 19.8669 21.3253 20.0546C21.2873 20.7287 20.4167 21.7129 19.7643 21.894C19.381 22.0001 19.3414 21.721 19.2489 21.5235C18.9747 20.9409 18.6129 20.4594 17.9968 20.1852C17.7342 20.0677 17.5888 20.066 17.5425 20.3843C17.4633 20.9278 17.27 21.3962 17.8845 21.8924C18.8277 22.653 18.4032 23.9228 17.2634 24.3978C16.1765 24.8499 15.3027 24.6181 14.409 23.8575C14.229 25.1176 13.5038 25.8521 12.3574 26.1964C11.0822 26.58 10.0333 26.1165 9.13304 25.2645C8.88196 25.0278 8.80763 24.8907 8.38145 25.067C7.37713 25.4832 6.3117 25.5697 5.26939 25.0702C5.00509 24.9429 4.83826 24.8891 4.88451 24.5023C4.99683 23.5556 4.56075 22.9713 3.56634 22.7624C2.99811 22.6432 2.79658 22.4425 2.85605 21.8581C2.90891 21.3424 3.10383 20.6813 2.07308 20.7597C1.76584 20.7825 1.18109 20.3876 1.2422 19.8032C1.29506 19.2891 1.48998 18.9186 2.13089 18.8223C2.78007 18.7244 3.2145 18.3457 3.17981 17.5623C3.14017 16.6434 3.87358 15.8469 4.78705 15.7179C5.67078 15.5939 6.55782 15.3262 7.41843 15.8697C7.71411 16.0558 7.86773 15.6363 8.11881 15.5629C8.27904 15.5384 8.37815 15.5678 8.29886 15.7587C8.09733 16.6189 7.51589 17.3419 7.39035 18.2315C7.31932 18.5236 7.55388 18.4469 7.68107 18.4485C8.86874 18.4583 10.0581 18.4567 11.2457 18.4583C11.5712 18.4583 11.8966 18.4583 12.2203 18.4583C12.6795 18.4534 13.1404 18.4469 13.5996 18.442C14.0902 18.4355 14.5808 18.429 15.0714 18.4224Z" fill="#98CBFE"/>
<path d="M8.29886 15.7571C8.23939 15.6918 8.17827 15.6265 8.1188 15.5613C8.28894 15.323 8.34015 14.9737 8.72173 14.9345C8.58132 15.2103 8.44091 15.4829 8.29886 15.7571Z" fill="#9AC6F8"/>
<path d="M2.62147 22.511C2.36213 22.5616 2.11931 22.8097 1.84841 22.5583C1.81868 22.5306 1.84511 22.3772 1.88971 22.3478C2.17382 22.1601 2.37535 22.4359 2.62147 22.511Z" fill="#86B2EF"/>
<path d="M65.798 10.022C65.5087 9.61133 65.1587 9.28467 64.748 9.042C64.3467 8.79933 63.9547 8.678 63.572 8.678C63.2827 8.678 63.012 8.73867 62.76 8.86C62.5173 8.972 62.3027 9.13533 62.116 9.35C61.9293 9.55533 61.7847 9.80267 61.682 10.092C61.5887 10.372 61.542 10.68 61.542 11.016C61.542 11.3613 61.5887 11.6787 61.682 11.968C61.7847 12.2573 61.9293 12.5093 62.116 12.724C62.3027 12.9293 62.5173 13.0927 62.76 13.214C63.012 13.326 63.2827 13.382 63.572 13.382C63.9267 13.382 64.3047 13.2793 64.706 13.074C65.1167 12.8593 65.4807 12.5793 65.798 12.234L67.674 14.236C67.31 14.6373 66.89 14.9873 66.414 15.286C65.9473 15.5847 65.4527 15.818 64.93 15.986C64.4167 16.1447 63.908 16.224 63.404 16.224C62.648 16.224 61.9527 16.098 61.318 15.846C60.6927 15.5847 60.1467 15.2253 59.68 14.768C59.2133 14.3013 58.8493 13.7553 58.588 13.13C58.336 12.4953 58.21 11.8047 58.21 11.058C58.21 10.3207 58.3407 9.644 58.602 9.028C58.8633 8.412 59.232 7.87533 59.708 7.418C60.1933 6.96067 60.758 6.606 61.402 6.354C62.0553 6.102 62.7647 5.976 63.53 5.976C64.034 5.976 64.538 6.05067 65.042 6.2C65.5553 6.34933 66.036 6.55933 66.484 6.83C66.9413 7.10067 67.338 7.42267 67.674 7.796L65.798 10.022ZM73.102 5.976C73.886 5.976 74.6046 6.102 75.258 6.354C75.9113 6.606 76.4806 6.96067 76.966 7.418C77.4513 7.87533 77.8246 8.41667 78.086 9.042C78.3566 9.658 78.492 10.3347 78.492 11.072C78.492 11.8093 78.3566 12.4953 78.086 13.13C77.8246 13.7553 77.4513 14.3013 76.966 14.768C76.4806 15.2253 75.9113 15.5847 75.258 15.846C74.6046 16.098 73.886 16.224 73.102 16.224C72.318 16.224 71.5993 16.098 70.946 15.846C70.2926 15.5847 69.7233 15.2253 69.238 14.768C68.7526 14.3013 68.3746 13.7553 68.104 13.13C67.8426 12.5047 67.712 11.8187 67.712 11.072C67.712 10.3253 67.8426 9.644 68.104 9.028C68.3746 8.40267 68.7526 7.866 69.238 7.418C69.7233 6.96067 70.2926 6.606 70.946 6.354C71.5993 6.102 72.318 5.976 73.102 5.976ZM73.144 8.678C72.864 8.678 72.5933 8.73867 72.332 8.86C72.08 8.972 71.856 9.14 71.66 9.364C71.4733 9.57867 71.324 9.83067 71.212 10.12C71.1 10.4093 71.044 10.7313 71.044 11.086C71.044 11.4313 71.1 11.7533 71.212 12.052C71.324 12.3507 71.478 12.612 71.674 12.836C71.87 13.0507 72.094 13.2187 72.346 13.34C72.598 13.4613 72.864 13.522 73.144 13.522C73.424 13.522 73.6853 13.4613 73.928 13.34C74.1706 13.2187 74.3853 13.0507 74.572 12.836C74.7586 12.612 74.9033 12.3507 75.006 12.052C75.1086 11.7533 75.16 11.4313 75.16 11.086C75.16 10.7313 75.1086 10.4093 75.006 10.12C74.9033 9.83067 74.7586 9.57867 74.572 9.364C74.3853 9.14 74.1706 8.972 73.928 8.86C73.6853 8.73867 73.424 8.678 73.144 8.678ZM79.3992 6.186H82.6472V13.298H86.7352V16H79.3992V6.186ZM87.575 6.186H95.877V8.65H90.823V9.854H95.415V12.318H90.823V13.536H96.003V16H87.575V6.186ZM104.689 9.742C104.362 9.41533 103.98 9.15867 103.541 8.972C103.102 8.776 102.678 8.678 102.267 8.678C101.95 8.678 101.656 8.73867 101.385 8.86C101.124 8.98133 100.895 9.14933 100.699 9.364C100.503 9.57867 100.349 9.83533 100.237 10.134C100.134 10.4233 100.083 10.7407 100.083 11.086C100.083 11.4407 100.139 11.7673 100.251 12.066C100.363 12.3553 100.517 12.612 100.713 12.836C100.909 13.0507 101.142 13.2187 101.413 13.34C101.684 13.4613 101.978 13.522 102.295 13.522C102.584 13.522 102.939 13.4427 103.359 13.284C103.788 13.116 104.18 12.906 104.535 12.654L106.369 14.936C106.005 15.1787 105.576 15.398 105.081 15.594C104.596 15.79 104.087 15.944 103.555 16.056C103.032 16.168 102.538 16.224 102.071 16.224C101.306 16.224 100.596 16.098 99.943 15.846C99.299 15.5847 98.7343 15.2253 98.249 14.768C97.773 14.3107 97.4043 13.7693 97.143 13.144C96.8817 12.5093 96.751 11.8233 96.751 11.086C96.751 10.3487 96.8863 9.672 97.157 9.056C97.4277 8.43067 97.8103 7.88933 98.305 7.432C98.809 6.96533 99.397 6.606 100.069 6.354C100.741 6.102 101.478 5.976 102.281 5.976C102.794 5.976 103.308 6.04133 103.821 6.172C104.344 6.29333 104.838 6.47067 105.305 6.704C105.772 6.928 106.178 7.19867 106.523 7.516L104.689 9.742ZM103.583 10.834H106.369V14.936H103.583V10.834ZM107.577 6.186H110.825V16H107.577V6.186ZM117.125 5.976C117.909 5.976 118.628 6.102 119.281 6.354C119.935 6.606 120.504 6.96067 120.989 7.418C121.475 7.87533 121.848 8.41667 122.109 9.042C122.38 9.658 122.515 10.3347 122.515 11.072C122.515 11.8093 122.38 12.4953 122.109 13.13C121.848 13.7553 121.475 14.3013 120.989 14.768C120.504 15.2253 119.935 15.5847 119.281 15.846C118.628 16.098 117.909 16.224 117.125 16.224C116.341 16.224 115.623 16.098 114.969 15.846C114.316 15.5847 113.747 15.2253 113.261 14.768C112.776 14.3013 112.398 13.7553 112.127 13.13C111.866 12.5047 111.735 11.8187 111.735 11.072C111.735 10.3253 111.866 9.644 112.127 9.028C112.398 8.40267 112.776 7.866 113.261 7.418C113.747 6.96067 114.316 6.606 114.969 6.354C115.623 6.102 116.341 5.976 117.125 5.976ZM117.167 8.678C116.887 8.678 116.617 8.73867 116.355 8.86C116.103 8.972 115.879 9.14 115.683 9.364C115.497 9.57867 115.347 9.83067 115.235 10.12C115.123 10.4093 115.067 10.7313 115.067 11.086C115.067 11.4313 115.123 11.7533 115.235 12.052C115.347 12.3507 115.501 12.612 115.697 12.836C115.893 13.0507 116.117 13.2187 116.369 13.34C116.621 13.4613 116.887 13.522 117.167 13.522C117.447 13.522 117.709 13.4613 117.951 13.34C118.194 13.2187 118.409 13.0507 118.595 12.836C118.782 12.612 118.927 12.3507 119.029 12.052C119.132 11.7533 119.183 11.4313 119.183 11.086C119.183 10.7313 119.132 10.4093 119.029 10.12C118.927 9.83067 118.782 9.57867 118.595 9.364C118.409 9.14 118.194 8.972 117.951 8.86C117.709 8.73867 117.447 8.678 117.167 8.678ZM130.5 6.186H133.832L137.822 16H134.364L132.068 9.42L129.688 16H126.356L130.5 6.186ZM129.156 12.29H134.784V14.614H129.156V12.29ZM143.126 6.186C144.46 6.186 145.492 6.494 146.22 7.11C146.948 7.71667 147.312 8.58 147.312 9.7C147.312 10.8853 146.948 11.8093 146.22 12.472C145.492 13.1253 144.46 13.452 143.126 13.452H141.628V16H138.38V6.186H143.126ZM143.126 10.988C143.48 10.988 143.751 10.8853 143.938 10.68C144.134 10.4653 144.232 10.1713 144.232 9.798C144.232 9.434 144.134 9.154 143.938 8.958C143.751 8.75267 143.48 8.65 143.126 8.65H141.628V10.988H143.126ZM142.3 12.29H145.436L147.69 16H144.022L142.3 12.29ZM155.622 10.022C155.333 9.61133 154.983 9.28467 154.572 9.042C154.171 8.79933 153.779 8.678 153.396 8.678C153.107 8.678 152.836 8.73867 152.584 8.86C152.342 8.972 152.127 9.13533 151.94 9.35C151.754 9.55533 151.609 9.80267 151.506 10.092C151.413 10.372 151.366 10.68 151.366 11.016C151.366 11.3613 151.413 11.6787 151.506 11.968C151.609 12.2573 151.754 12.5093 151.94 12.724C152.127 12.9293 152.342 13.0927 152.584 13.214C152.836 13.326 153.107 13.382 153.396 13.382C153.751 13.382 154.129 13.2793 154.53 13.074C154.941 12.8593 155.305 12.5793 155.622 12.234L157.498 14.236C157.134 14.6373 156.714 14.9873 156.238 15.286C155.772 15.5847 155.277 15.818 154.754 15.986C154.241 16.1447 153.732 16.224 153.228 16.224C152.472 16.224 151.777 16.098 151.142 15.846C150.517 15.5847 149.971 15.2253 149.504 14.768C149.038 14.3013 148.674 13.7553 148.412 13.13C148.16 12.4953 148.034 11.8047 148.034 11.058C148.034 10.3207 148.165 9.644 148.426 9.028C148.688 8.412 149.056 7.87533 149.532 7.418C150.018 6.96067 150.582 6.606 151.226 6.354C151.88 6.102 152.589 5.976 153.354 5.976C153.858 5.976 154.362 6.05067 154.866 6.2C155.38 6.34933 155.86 6.55933 156.308 6.83C156.766 7.10067 157.162 7.42267 157.498 7.796L155.622 10.022ZM162.926 5.976C163.71 5.976 164.429 6.102 165.082 6.354C165.736 6.606 166.305 6.96067 166.79 7.418C167.276 7.87533 167.649 8.41667 167.91 9.042C168.181 9.658 168.316 10.3347 168.316 11.072C168.316 11.8093 168.181 12.4953 167.91 13.13C167.649 13.7553 167.276 14.3013 166.79 14.768C166.305 15.2253 165.736 15.5847 165.082 15.846C164.429 16.098 163.71 16.224 162.926 16.224C162.142 16.224 161.424 16.098 160.77 15.846C160.117 15.5847 159.548 15.2253 159.062 14.768C158.577 14.3013 158.199 13.7553 157.928 13.13C157.667 12.5047 157.536 11.8187 157.536 11.072C157.536 10.3253 157.667 9.644 157.928 9.028C158.199 8.40267 158.577 7.866 159.062 7.418C159.548 6.96067 160.117 6.606 160.77 6.354C161.424 6.102 162.142 5.976 162.926 5.976ZM162.968 8.678C162.688 8.678 162.418 8.73867 162.156 8.86C161.904 8.972 161.68 9.14 161.484 9.364C161.298 9.57867 161.148 9.83067 161.036 10.12C160.924 10.4093 160.868 10.7313 160.868 11.086C160.868 11.4313 160.924 11.7533 161.036 12.052C161.148 12.3507 161.302 12.612 161.498 12.836C161.694 13.0507 161.918 13.2187 162.17 13.34C162.422 13.4613 162.688 13.522 162.968 13.522C163.248 13.522 163.51 13.4613 163.752 13.34C163.995 13.2187 164.21 13.0507 164.396 12.836C164.583 12.612 164.728 12.3507 164.83 12.052C164.933 11.7533 164.984 11.4313 164.984 11.086C164.984 10.7313 164.933 10.4093 164.83 10.12C164.728 9.83067 164.583 9.57867 164.396 9.364C164.21 9.14 163.995 8.972 163.752 8.86C163.51 8.73867 163.248 8.678 162.968 8.678ZM172.997 6.186H176.245V16H172.997V6.186ZM182.391 6.186C183.726 6.186 184.757 6.494 185.485 7.11C186.213 7.71667 186.577 8.58 186.577 9.7C186.577 10.8853 186.213 11.8093 185.485 12.472C184.757 13.1253 183.726 13.452 182.391 13.452H180.893V16H177.645V6.186H182.391ZM182.391 10.988C182.746 10.988 183.017 10.8853 183.203 10.68C183.399 10.4653 183.497 10.1713 183.497 9.798C183.497 9.434 183.399 9.154 183.203 8.958C183.017 8.75267 182.746 8.65 182.391 8.65H180.893V10.988H182.391ZM181.565 12.29H184.701L186.955 16H183.287L181.565 12.29ZM187.79 6.186H191.038V16H187.79V6.186ZM199.788 9.588C199.462 9.392 199.088 9.20533 198.668 9.028C198.248 8.85067 197.838 8.706 197.436 8.594C197.044 8.482 196.704 8.426 196.414 8.426C196.237 8.426 196.092 8.45867 195.98 8.524C195.868 8.58933 195.812 8.70133 195.812 8.86C195.812 9.04667 195.901 9.20067 196.078 9.322C196.265 9.434 196.508 9.532 196.806 9.616C197.114 9.7 197.45 9.79333 197.814 9.896C198.178 9.98933 198.538 10.1107 198.892 10.26C199.256 10.4 199.588 10.582 199.886 10.806C200.194 11.03 200.437 11.3193 200.614 11.674C200.801 12.0287 200.894 12.4627 200.894 12.976C200.894 13.7133 200.703 14.32 200.32 14.796C199.938 15.2627 199.434 15.6127 198.808 15.846C198.183 16.07 197.502 16.182 196.764 16.182C196.195 16.182 195.612 16.1213 195.014 16C194.426 15.8693 193.862 15.6873 193.32 15.454C192.779 15.2113 192.289 14.922 191.85 14.586L193.054 12.136C193.39 12.4253 193.787 12.6867 194.244 12.92C194.702 13.1533 195.159 13.34 195.616 13.48C196.074 13.62 196.466 13.69 196.792 13.69C197.035 13.69 197.226 13.648 197.366 13.564C197.506 13.4707 197.576 13.3307 197.576 13.144C197.576 12.9573 197.483 12.808 197.296 12.696C197.119 12.5747 196.876 12.472 196.568 12.388C196.27 12.304 195.938 12.22 195.574 12.136C195.21 12.0427 194.846 11.9307 194.482 11.8C194.128 11.66 193.796 11.4827 193.488 11.268C193.19 11.044 192.947 10.764 192.76 10.428C192.583 10.092 192.494 9.672 192.494 9.168C192.494 8.50533 192.667 7.93133 193.012 7.446C193.358 6.96067 193.843 6.58733 194.468 6.326C195.103 6.06467 195.845 5.934 196.694 5.934C197.469 5.934 198.234 6.04133 198.99 6.256C199.756 6.47067 200.414 6.75533 200.964 7.11L199.788 9.588Z" fill="white"/>
</g>
<defs>
<clipPath id="clip0_133_58">
<rect width="209" height="28" fill="white"/>
</clipPath>
</defs>
</svg>
